HIERARCHY
ROOT Hips
{
	OFFSET 0.00000 0.00000 0.00000
	CHANNELS 6 Xposition Yposition Zposition Zrotation Yrotation Xrotation 
	JOINT LHipJoint
	{
		OFFSET 0 0 0
		CHANNELS 3 Zrotation Yrotation Xrotation
		JOINT LeftUpLeg
		{
			OFFSET 2.36090 -1.39315 1.24752
			CHANNELS 3 Zrotation Yrotation Xrotation
			JOINT LeftLeg
			{
				OFFSET 2.06810 -5.68207 0.00000
				CHANNELS 3 Zrotation Yrotation Xrotation
				JOINT LeftFoot
				{
					OFFSET 2.46631 -6.77613 0.00000
					CHANNELS 3 Zrotation Yrotation Xrotation
					JOINT LeftToeBase
					{
						OFFSET 0.26031 -0.71520 1.99545
						CHANNELS 3 Zrotation Yrotation Xrotation
						End Site
						{
							OFFSET 0.00000 -0.00000 1.05957
						}
					}
				}
			}
		}
	}
	JOINT RHipJoint
	{
		OFFSET 0 0 0
		CHANNELS 3 Zrotation Yrotation Xrotation
		JOINT RightUpLeg
		{
			OFFSET -2.25243 -1.39315 1.24752
			CHANNELS 3 Zrotation Yrotation Xrotation
			JOINT RightLeg
			{
				OFFSET -2.17343 -5.97145 0.00000
				CHANNELS 3 Zrotation Yrotation Xrotation
				JOINT RightFoot
				{
					OFFSET -2.52372 -6.93386 0.00000
					CHANNELS 3 Zrotation Yrotation Xrotation
					JOINT RightToeBase
					{
						OFFSET -0.22538 -0.61923 2.11447
						CHANNELS 3 Zrotation Yrotation Xrotation
						End Site
						{
							OFFSET -0.00000 -0.00000 1.10506
						}
					}
				}
			}
		}
	}
	JOINT LowerBack
	{
		OFFSET 0 0 0
		CHANNELS 3 Zrotation Yrotation Xrotation
		JOINT Spine
		{
			OFFSET 0.01594 2.13103 0.08007
			CHANNELS 3 Zrotation Yrotation Xrotation
			JOINT Spine1
			{
				OFFSET 0.01393 2.09723 0.18338
				CHANNELS 3 Zrotation Yrotation Xrotation
				JOINT Neck
				{
					OFFSET 0 0 0
					CHANNELS 3 Zrotation Yrotation Xrotation
					JOINT Neck1
					{
						OFFSET 0.05351 1.38915 0.32494
						CHANNELS 3 Zrotation Yrotation Xrotation
						JOINT Head
						{
							OFFSET 0.00711 1.45992 -0.21666
							CHANNELS 3 Zrotation Yrotation Xrotation
							End Site
							{
								OFFSET -0.00433 1.47702 -0.11056
							}
						}
					}
				}
				JOINT LeftShoulder
				{
					OFFSET 0 0 0
					CHANNELS 3 Zrotation Yrotation Xrotation
					JOINT LeftArm
					{
						OFFSET 2.87198 0.92249 0.11132
						CHANNELS 3 Zrotation Yrotation Xrotation
						JOINT LeftForeArm
						{
							OFFSET 5.52731 -0.00000 0.00000
							CHANNELS 3 Zrotation Yrotation Xrotation
							JOINT LeftHand
							{
								OFFSET 3.11059 -0.00000 0.00000
								CHANNELS 3 Zrotation Yrotation Xrotation
								JOINT LeftFingerBase
								{
									OFFSET 0 0 0
									CHANNELS 3 Zrotation Yrotation Xrotation
									JOINT LeftHandIndex1
									{
										OFFSET 0.41963 -0.00000 0.00000
										CHANNELS 3 Zrotation Yrotation Xrotation
										End Site
										{
											OFFSET 0.33831 -0.00000 0.00000
										}
									}
								}
								JOINT LThumb
								{
									OFFSET 0 0 0
									CHANNELS 3 Zrotation Yrotation Xrotation
									End Site
									{
										OFFSET 0.34348 -0.00000 0.34348
									}
								}
							}
						}
					}
				}
				JOINT RightShoulder
				{
					OFFSET 0 0 0
					CHANNELS 3 Zrotation Yrotation Xrotation
					JOINT RightArm
					{
						OFFSET -2.94710 0.68072 0.32187
						CHANNELS 3 Zrotation Yrotation Xrotation
						JOINT RightForeArm
						{
							OFFSET -5.25396 -0.00000 -0.00000
							CHANNELS 3 Zrotation Yrotation Xrotation
							JOINT RightHand
							{
								OFFSET -3.10567 -0.00000 0.00000
								CHANNELS 3 Zrotation Yrotation Xrotation
								JOINT RightFingerBase
								{
									OFFSET 0 0 0
									CHANNELS 3 Zrotation Yrotation Xrotation
									JOINT RightHandIndex1
									{
										OFFSET -0.49868 -0.00000 0.00000
										CHANNELS 3 Zrotation Yrotation Xrotation
										End Site
										{
											OFFSET -0.40204 -0.00000 0.00000
										}
									}
								}
								JOINT RThumb
								{
									OFFSET 0 0 0
									CHANNELS 3 Zrotation Yrotation Xrotation
									End Site
									{
										OFFSET -0.40818 -0.00000 0.40818
									}
								}
							}
						}
					}
				}
			}
		}
	}
}
MOTION
Frames: 9
Frame Time: .0083333
8.2472 15.4605 24.2298 0 0 0 0 0 0 -21 0 0 0 0 0 0 0 0 0 0 0 0 0 0 21 0 0 0 0 0 0 0 0 0 0 0 0 0 0 0 0 0 0 0 0 0 0 -16 0 0 21 0 0 11 0 0 0 -8 0 0 0 0 0 0 0 0 0 0 0 0 0 0 0 0 0 0 0 0 8 0 0 0 0 0 0 0 0 0 0 0 0 0 0 0 0 0
8.2472 15.4605 24.2298 -175.7250 -4.0039 -156.0420 0.0000 0.0000 0.0000 -12.2080 -16.3246 -33.3255 3.3151 11.1885 32.9184 1.1749 1.8400 -21.2167 0.5681 -4.8274 -13.4168 0.0000 0.0000 0.0000 -4.7105 27.8064 -50.5914 -3.2348 -11.0658 32.5021 0.4020 -13.7239 -13.5992 -0.2339 3.1125 -8.5922 -3.5540 -0.6531 -8.6028 0.9971 -1.0045 -4.5711 2.9411 -0.6022 0.1514 2.5782 4.0105 -15.9790 -0.7471 3.3891 30.7722 -0.3575 1.0152 13.0167 0.0000 -0.0000 0.0000 -78.2507 -4.1963 40.9516 19.5151 -30.0537 -5.2864 -0.0000 0.0000 -45.4332 28.8309 -0.9476 -0.5216 -7.1250 0.0000 -0.0000 1.7640 28.8962 -0.6923 0.0000 -0.0000 0.0000 67.6493 -15.1958 30.1426 -33.6378 43.8146 -13.8617 0.0000 -0.0000 -16.6261 -9.0823 -24.6802 3.8188 7.1250 -0.0000 -0.0000 21.2347 -53.6552 -4.6835
8.2673 15.4622 24.1801 -175.8830 -4.1307 -155.9600 0.0000 0.0000 0.0000 -12.3287 -16.3148 -33.0236 3.2451 11.0816 32.5557 1.1694 1.7780 -21.1424 0.5868 -4.9045 -13.6364 0.0000 0.0000 0.0000 -5.5933 27.9391 -50.3529 -3.0020 -10.6983 31.2691 0.4857 -14.6483 -14.0228 -0.2389 3.1456 -8.6845 -3.4886 -0.6459 -8.6828 1.0259 -0.9955 -4.5472 2.9336 -0.5995 0.2194 2.5921 3.9408 -15.9518 -0.7879 3.2919 30.7927 -0.3918 0.9673 13.0188 0.0000 -0.0000 0.0000 -78.3907 -4.1529 41.4844 19.6496 -30.2179 -5.3539 -0.0000 0.0000 -45.9771 28.3717 -1.1271 -0.6086 -7.1250 0.0000 -0.0000 1.4019 28.6977 -0.5567 0.0000 -0.0000 0.0000 67.4974 -15.0782 30.0859 -34.0574 44.1272 -14.1530 0.0000 -0.0000 -16.6063 -9.3982 -24.5260 3.9305 7.1250 -0.0000 -0.0000 20.8414 -53.5684 -4.5454
8.2886 15.4625 24.1292 -176.0580 -4.2551 -155.8670 0.0000 0.0000 0.0000 -12.4686 -16.2935 -32.7073 3.1704 10.9659 32.1650 1.1670 1.7097 -21.0918 0.5995 -4.9567 -13.7852 0.0000 0.0000 0.0000 -6.4738 28.0760 -50.2387 -2.8139 -10.3876 30.2412 0.5524 -15.4431 -14.5862 -0.2382 3.1412 -8.6720 -3.4396 -0.6433 -8.7317 1.0666 -0.9902 -4.5084 2.9475 -0.5973 0.2864 2.5922 3.8872 -16.1017 -0.8400 3.2338 30.8524 -0.4190 0.9367 13.0756 -0.0000 -0.0000 0.0000 -78.5807 -4.1890 41.8820 19.7482 -30.3377 -5.4036 -0.0000 0.0000 -46.3903 27.9805 -1.0954 -0.5819 -7.1250 0.0000 -0.0000 1.0981 28.7387 -0.4349 -0.0000 -0.0000 0.0000 67.3448 -14.7826 29.9618 -34.3268 44.3254 -14.3409 0.0000 -0.0000 -16.4918 -9.4581 -24.4967 3.9515 7.1250 -0.0000 -0.0000 20.7669 -53.5518 -4.5195
8.3133 15.4647 24.0744 -176.2620 -4.3386 -155.7490 0.0000 0.0000 0.0000 -12.6405 -16.2436 -32.4019 3.0976 10.8514 31.7804 1.1673 1.6563 -21.0713 0.6065 -4.9849 -13.8654 0.0000 0.0000 0.0000 -7.2036 28.1449 -50.0702 -2.6320 -10.0740 29.2169 0.5933 -15.8931 -14.8837 -0.2283 3.0752 -8.4881 -3.4413 -0.6452 -8.8328 1.1193 -0.9961 -4.5401 3.0016 -0.6024 0.3102 2.5357 3.8266 -15.9741 -0.8507 3.1525 30.8777 -0.4292 0.8877 13.0560 -0.0000 0.0000 0.0000 -78.7389 -4.0425 42.3949 19.8208 -30.4258 -5.4403 -0.0000 0.0000 -46.6600 27.6537 -1.3475 -0.7059 -7.1250 0.0000 -0.0000 0.8392 28.4582 -0.3379 -0.0000 0.0000 0.0000 67.1952 -14.7074 30.0046 -34.7270 44.6162 -14.6213 0.0000 -0.0000 -16.5917 -9.8796 -24.6537 4.1551 7.1250 -0.0000 -0.0000 20.4457 -53.7748 -4.5585
8.3377 15.4636 24.0203 -176.4540 -4.4306 -155.6390 0.0000 0.0000 0.0000 -12.7950 -16.1964 -32.1013 3.0285 10.7411 31.4117 1.1635 1.6006 -21.0149 0.6197 -5.0378 -14.0163 0.0000 0.0000 0.0000 -8.0102 28.2835 -49.9414 -2.4707 -9.7845 28.2817 0.6503 -16.5013 -15.2961 -0.2267 3.0649 -8.4594 -3.4169 -0.6424 -8.9248 1.1611 -0.9936 -4.5399 3.0303 -0.6029 0.3611 2.5126 3.7706 -15.9635 -0.8785 3.0805 30.9161 -0.4481 0.8476 13.0683 -0.0000 -0.0000 0.0000 -78.8902 -3.9785 42.8932 19.8913 -30.5111 -5.4760 -0.0000 0.0000 -46.9141 27.4191 -1.4562 -0.7553 -7.1250 0.0000 -0.0000 0.6553 28.3391 -0.2657 -0.0000 -0.0000 0.0000 67.0720 -14.5370 29.9779 -35.0653 44.8587 -14.8594 0.0000 -0.0000 -16.6208 -10.2120 -24.6535 4.2973 7.1250 -0.0000 -0.0000 20.1217 -53.8352 -4.5119
8.3639 15.4614 23.9647 -176.6520 -4.5100 -155.5250 0.0000 0.0000 0.0000 -12.9527 -16.1346 -31.8047 2.9619 10.6331 31.0522 1.1587 1.5481 -20.9504 0.6351 -5.0988 -14.1907 0.0000 0.0000 0.0000 -8.7802 28.4254 -49.8441 -2.3322 -9.5261 27.4555 0.7010 -17.0362 -15.6881 -0.2273 3.0687 -8.4701 -3.3993 -0.6395 -9.0244 1.2056 -0.9911 -4.5431 3.0656 -0.6036 0.4127 2.4827 3.7187 -15.9501 -0.9051 3.0160 30.9548 -0.4643 0.8099 13.0801 -0.0000 -0.0000 0.0000 -79.0371 -3.9082 43.4073 19.9467 -30.5781 -5.5042 -0.0000 0.0000 -47.0470 27.3434 -1.5018 -0.7764 -7.1250 0.0000 -0.0000 0.5957 28.2889 -0.2423 -0.0000 -0.0000 0.0000 66.9650 -14.3550 29.9629 -35.3847 45.0849 -15.0851 0.0000 -0.0000 -16.6661 -10.5688 -24.6769 4.4542 7.1250 -0.0000 -0.0000 19.7864 -53.9224 -4.4749
8.3917 15.4582 23.9078 -176.8540 -4.5766 -155.4070 0.0000 0.0000 0.0000 -13.1077 -16.0614 -31.5246 2.9020 10.5348 30.7264 1.1546 1.4945 -20.8922 0.6534 -5.1706 -14.3958 0.0000 0.0000 0.0000 -9.4984 28.5641 -49.7499 -2.2082 -9.2869 26.6971 0.7484 -17.5169 -16.0407 -0.2312 3.0947 -8.5426 -3.3852 -0.6357 -9.1294 1.2509 -0.9878 -4.5498 3.1038 -0.6040 0.4635 2.4490 3.6708 -15.9281 -0.9297 2.9571 30.9929 -0.4784 0.7743 13.0898 -0.0000 0.0000 0.0000 -79.1745 -3.8267 43.9387 19.9923 -30.6331 -5.5274 -0.0000 0.0000 -47.0657 27.4358 -1.4849 -0.7707 -7.1250 0.0000 -0.0000 0.6676 28.3065 -0.2712 -0.0000 0.0000 0.0000 66.8790 -14.1672 29.9603 -35.6882 45.2973 -15.3004 0.0000 -0.0000 -16.7257 -10.9520 -24.6881 4.6209 7.1250 -0.0000 -0.0000 19.4175 -54.0032 -4.4254
8.4214 15.4536 23.8497 -177.0550 -4.6323 -155.2900 0.0000 0.0000 0.0000 -13.2551 -15.9791 -31.2533 2.8469 10.4430 30.4235 1.1521 1.4406 -20.8472 0.6748 -5.2529 -14.6314 0.0000 0.0000 0.0000 -10.1524 28.6934 -49.6769 -2.1034 -9.0783 26.0405 0.7906 -17.9431 -16.3730 -0.2407 3.1572 -8.7168 -3.3681 -0.6297 -9.2351 1.2969 -0.9820 -4.5571 3.1412 -0.6033 0.5138 2.4158 3.6280 -15.8996 -0.9567 2.9069 31.0254 -0.4921 0.7423 13.0959 0.0000 -0.0000 0.0000 -79.3038 -3.7414 44.4762 20.0286 -30.6768 -5.5459 -0.0000 0.0000 -46.9825 27.6446 -1.4135 -0.7402 -7.1250 0.0000 -0.0000 0.8310 28.3838 -0.3361 0.0000 -0.0000 0.0000 66.8165 -13.9597 29.9626 -35.9653 45.4892 -15.4977 0.0000 -0.0000 -16.7826 -11.3162 -24.7076 4.7814 7.1250 -0.0000 -0.0000 19.0710 -54.0888 -4.3824
